<svg width="25" height="25" viewBox="0 0 25 25" fill="none" xmlns="http://www.w3.org/2000/svg">
<path d="M24.2079 12.0286C23.042 10.5284 19.0198 6.03601 12.5 6.03601C5.95305 6.03601 1.95803 10.5284 0.79214 12.0286C0.569287 12.3057 0.569287 12.6944 0.79214 12.9716C1.95803 14.469 5.95305 18.9641 12.5 18.9641C19.0469 18.9641 23.042 14.469 24.2079 12.9716C24.4307 12.6944 24.4307 12.3057 24.2079 12.0286ZM12.5 17.3281C9.83666 17.3281 7.67336 15.162 7.67336 12.4987C7.67336 9.83539 9.83666 7.67207 12.5 7.67207C15.1634 7.67207 17.3266 9.83539 17.3266 12.4987C17.3266 15.162 15.1634 17.3281 12.5 17.3281Z" fill="#006898"/>
<path d="M15.9888 12.9204C16.0368 12.4791 16.0021 12.0288 15.8786 11.6246C15.6165 12.238 14.9617 12.6133 14.2722 12.5384C13.4171 12.4454 12.775 11.6778 12.871 10.7952C12.946 10.1057 13.4533 9.54684 14.1087 9.42276C13.7375 9.24286 13.3052 9.11212 12.8639 9.06412C10.9332 8.85414 9.2206 10.2307 9.01062 12.1615C8.80363 14.0646 10.1772 15.8047 12.1079 16.0147C14.0387 16.2247 15.7818 14.8235 15.9888 12.9204Z" fill="#006898"/>
</svg>
