<svg width="40" height="40" viewBox="0 0 40 40" fill="none" xmlns="http://www.w3.org/2000/svg">
<rect width="40" height="40" rx="20" fill="white"/>
<g clip-path="url(#clip0_95_241)">
<path d="M21.1251 20.0002C21.1251 20.6212 20.6211 21.1252 20.0001 21.1252C19.3791 21.1252 18.8751 20.6212 18.8751 20.0002C18.8751 19.3792 19.3791 18.8752 20.0001 18.8752C20.6211 18.8752 21.1251 19.3792 21.1251 20.0002ZM23.7501 18.8752C23.1291 18.8752 22.6251 19.3792 22.6251 20.0002C22.6251 20.6212 23.1291 21.1252 23.7501 21.1252C24.3711 21.1252 24.8751 20.6212 24.8751 20.0002C24.8751 19.3792 24.3711 18.8752 23.7501 18.8752ZM16.2501 18.8752C15.6291 18.8752 15.1251 19.3792 15.1251 20.0002C15.1251 20.6212 15.6291 21.1252 16.2501 21.1252C16.8711 21.1252 17.3751 20.6212 17.3751 20.0002C17.3751 19.3792 16.8711 18.8752 16.2501 18.8752ZM29.0001 20.2552V25.2502C29.0001 27.318 27.3179 29.0002 25.2501 29.0002H20.8124C15.5616 29.0002 11.3526 25.4062 11.0226 20.6407C10.8419 18.0337 11.7929 15.4822 13.6319 13.641C15.4709 11.7997 18.0224 10.8457 20.6271 11.022C25.3221 11.3407 29.0001 15.396 29.0001 20.2552ZM27.5001 20.2552C27.5001 16.182 24.4371 12.7837 20.5259 12.5182C20.3541 12.5062 20.1824 12.501 20.0114 12.501C18.0194 12.501 16.1046 13.287 14.6931 14.7007C13.1601 16.2352 12.3674 18.363 12.5189 20.5372C12.7986 24.5722 16.2869 27.5009 20.8131 27.5009H25.2509C26.4914 27.5009 27.5009 26.4915 27.5009 25.2509V20.256L27.5001 20.2552Z" fill="#006898"/>
</g>
<defs>
<clipPath id="clip0_95_241">
<rect width="18" height="18" fill="white" transform="translate(11 11)"/>
</clipPath>
</defs>
</svg>
