<svg width="39" height="39" viewBox="0 0 39 39" fill="none" xmlns="http://www.w3.org/2000/svg">
<path d="M19.5 35.9611C28.5912 35.9611 35.961 28.5913 35.961 19.5001C35.961 10.4089 28.5912 3.03906 19.5 3.03906C10.4088 3.03906 3.03894 10.4089 3.03894 19.5001C3.03894 28.5913 10.4088 35.9611 19.5 35.9611Z" fill="#EEF2F5" stroke="#636363" stroke-opacity="0.5" stroke-linecap="round" stroke-linejoin="round"/>
<rect x="6.68567" y="7.29346" width="26.1351" height="26.1351" rx="13.0675" fill="#636363"/>
<path d="M19.7532 6.68585C17.4537 6.67874 15.1934 7.31218 13.2018 8.52183C11.2102 9.73149 9.55827 11.4743 8.41385 13.5732C7.26943 15.6721 6.67325 18.0523 6.68587 20.4721C6.69848 22.892 7.31944 25.2652 8.48568 27.3507C9.96333 25.7898 11.7193 24.5513 13.6529 23.7062C15.5864 22.8611 17.6595 22.4261 19.7532 22.4261C21.8469 22.4261 23.92 22.8611 25.8535 23.7062C27.7871 24.5513 29.5431 25.7898 31.0207 27.3507C32.187 25.2652 32.8079 22.892 32.8205 20.4721C32.8332 18.0523 32.237 15.6721 31.0925 13.5732C29.9481 11.4743 28.2962 9.73149 26.3046 8.52183C24.313 7.31218 22.0527 6.67874 19.7532 6.68585ZM19.7532 20.9486C18.6247 20.9486 17.5216 20.5964 16.5833 19.9367C15.6449 19.2769 14.9136 18.3392 14.4818 17.242C14.0499 16.1448 13.9369 14.9376 14.1571 13.7728C14.3772 12.6081 14.9207 11.5382 15.7186 10.6985C16.5166 9.85877 17.5333 9.28691 18.6401 9.05523C19.7469 8.82355 20.8941 8.94245 21.9367 9.39691C22.9793 9.85137 23.8704 10.621 24.4974 11.6084C25.1243 12.5958 25.459 13.7567 25.459 14.9442C25.4555 16.5356 24.8532 18.0606 23.7839 19.1859C22.7146 20.3111 21.2654 20.9449 19.7532 20.9486Z" fill="#EEF2F5"/>
</svg>
