<svg width="34" height="35" viewBox="0 0 34 35" fill="none" xmlns="http://www.w3.org/2000/svg">
<path d="M32.7847 7.45632L32.8014 7.53181C33.1536 9.24898 33.4961 11.5759 33.5013 14.7425C33.496 17.9573 33.1431 20.3066 32.7853 22.0312C32.4904 23.3592 31.6913 24.657 30.6075 25.6941C29.523 26.7318 28.1832 27.4798 26.8451 27.7395L26.8423 27.74C25.9213 27.9242 24.0743 28.137 22.0436 28.2882L21.794 28.3067L21.6593 28.5177C21.4295 28.8777 21.1819 29.26 20.9132 29.6666C19.8387 31.2929 19.0215 32.4198 18.407 33.1994C17.9597 33.7668 17.4549 33.9996 17.0003 33.9996C16.5458 33.9996 16.041 33.7668 15.5937 33.1994C14.9791 32.4197 14.1613 31.2929 13.0876 29.6667L13.0873 29.6663C12.8186 29.2604 12.5705 28.8777 12.3417 28.5182L12.207 28.3068L11.957 28.2882C9.92635 28.137 8.07943 27.9242 7.1591 27.74L7.15622 27.7395C5.8181 27.4798 4.47834 26.7318 3.39381 25.6941C2.31004 24.657 1.51097 23.3593 1.21603 22.0313C0.85823 20.3068 0.505305 17.9573 0.500001 14.7425C0.505305 11.5277 0.858231 9.17764 1.21603 7.45313C1.51097 6.12512 2.31003 4.82736 3.39381 3.79032C4.47834 2.75256 5.8181 2.00458 7.15622 1.74494L7.15622 1.74495L7.159 1.74439C8.88044 1.40023 13.7651 0.966099 16.9945 1.00168L16.9945 1.0018L17.0055 1.00168C20.2349 0.966099 25.1196 1.40023 26.841 1.7444L26.8438 1.74494C28.1819 2.00458 29.5217 2.75256 30.6062 3.79032C31.6908 4.82819 32.4903 6.1272 32.7847 7.45632ZM19.3696 24.7011L19.3704 24.6965C19.4158 24.4255 19.457 24.0638 19.457 23.5785V23.5778C19.4563 23.0923 19.4151 22.7311 19.3706 22.4617L19.3706 22.4617L19.3696 22.456C19.2613 21.8449 18.733 21.3166 18.1219 21.2082L18.1172 21.2075C17.8463 21.1621 17.4846 21.1209 16.9993 21.1209H16.9986C16.5131 21.1216 16.1519 21.1627 15.8825 21.2073L15.8825 21.2072L15.8768 21.2083C15.2657 21.3166 14.7374 21.8449 14.6291 22.456L14.629 22.456L14.6282 22.4606C14.5828 22.7316 14.5417 23.0933 14.5417 23.5785L14.5417 23.5793C14.5424 24.0648 14.5835 24.426 14.6281 24.6954L14.628 24.6954L14.6291 24.7011C14.7374 25.3122 15.2657 25.8405 15.8768 25.9489L15.8814 25.9496C16.1524 25.995 16.5141 26.0362 16.9993 26.0362H17.0001C17.4856 26.0355 17.8467 25.9944 18.1162 25.9498L18.1162 25.9499L18.1219 25.9488C18.733 25.8405 19.2613 25.3122 19.3696 24.7011ZM15.3938 14.9453L15.8054 15.2293L15.3938 14.9453C14.8973 15.665 14.6619 16.481 14.6619 17.4134V18.0675C14.6619 19.3557 15.7092 20.403 16.9973 20.403C18.2855 20.403 19.3328 19.3557 19.3328 18.0675V17.7853C19.3328 17.503 19.3727 17.3584 19.5154 17.1834C19.6939 16.9646 20.0438 16.6897 20.764 16.2457C21.9322 15.5311 22.7621 14.8268 23.3284 14.0258C23.9275 13.179 24.215 12.2279 24.215 11.144C24.215 9.55269 23.5227 8.09597 22.2827 7.04742L22.2827 7.04738C21.0807 6.03116 19.4123 5.48753 17.7657 5.48753C16.1354 5.48753 14.6279 5.91011 13.4201 6.73312L13.42 6.73316C12.2261 7.5469 11.3572 8.72503 10.9059 10.132L10.9058 10.1322C10.6763 10.8493 10.788 11.6214 11.2099 12.2464C11.6357 12.8775 12.3177 13.2725 13.0765 13.3274L13.0779 13.3275C13.1348 13.3315 13.1944 13.334 13.256 13.334C14.3283 13.334 15.2728 12.653 15.596 11.633L15.596 11.633C15.7635 11.1042 16.026 10.7424 16.3618 10.508C16.7002 10.2717 17.1576 10.1339 17.7663 10.1339C18.3145 10.1339 18.7119 10.269 18.9593 10.4567C19.1937 10.6346 19.3209 10.8777 19.3209 11.1931C19.3209 11.4766 19.2693 11.6899 19.0601 11.9483C18.8251 12.2385 18.3811 12.5963 17.5334 13.095L17.5315 13.0961C16.5632 13.6716 15.869 14.2567 15.3938 14.9453Z" fill="#006898" stroke="#0073A8"/>
</svg>
